<svg viewBox="0 0 720 190" role="img" aria-label="The same gust counts as moderate at 40 km/h on exposed ground and at 60 km/h in the open" xmlns="http://www.w3.org/2000/svg">
<text x="104" y="57" text-anchor="end" font-family='Figtree, system-ui, sans-serif' font-size="13" font-weight="600" fill="#1f1915">Exposed</text>
<text x="104" y="72" text-anchor="end" font-family='Figtree, system-ui, sans-serif' font-size="11" fill="#69625d">T3+ or cables</text>
<rect x="116" y="44" width="231.60000000000002" height="30" rx="3" fill="#c5bcb0"/>
<rect x="349.6" y="44" width="85.60000000000002" height="30" rx="3" fill="#eca851"/>
<rect x="437.20000000000005" y="44" width="262.79999999999995" height="30" rx="3" fill="#d75928"/>
<text x="357.6" y="64" font-family='Figtree, system-ui, sans-serif' font-size="12" font-weight="600" fill="#1f1915">40</text>
<text x="445.20000000000005" y="64" font-family='Figtree, system-ui, sans-serif' font-size="12" font-weight="600" fill="#fff">55</text>
<text x="104" y="117" text-anchor="end" font-family='Figtree, system-ui, sans-serif' font-size="13" font-weight="600" fill="#1f1915">Open</text>
<text x="104" y="132" text-anchor="end" font-family='Figtree, system-ui, sans-serif' font-size="11" fill="#69625d">T1–T2</text>
<rect x="116" y="104" width="348.4" height="30" rx="3" fill="#c5bcb0"/>
<rect x="466.4" y="104" width="114.80000000000007" height="30" rx="3" fill="#eca851"/>
<rect x="583.2" y="104" width="116.79999999999995" height="30" rx="3" fill="#d75928"/>
<text x="474.4" y="124" font-family='Figtree, system-ui, sans-serif' font-size="12" font-weight="600" fill="#1f1915">60</text>
<text x="591.2" y="124" font-family='Figtree, system-ui, sans-serif' font-size="12" font-weight="600" fill="#fff">80</text>
<line x1="116" y1="140" x2="116" y2="146" stroke="#dbd7d0" stroke-width="1"/>
<text x="116" y="162" text-anchor="middle" font-family='Figtree, system-ui, sans-serif' font-size="11" fill="#69625d">0</text>
<line x1="232.8" y1="140" x2="232.8" y2="146" stroke="#dbd7d0" stroke-width="1"/>
<text x="232.8" y="162" text-anchor="middle" font-family='Figtree, system-ui, sans-serif' font-size="11" fill="#69625d">20</text>
<line x1="349.6" y1="140" x2="349.6" y2="146" stroke="#dbd7d0" stroke-width="1"/>
<text x="349.6" y="162" text-anchor="middle" font-family='Figtree, system-ui, sans-serif' font-size="11" fill="#69625d">40</text>
<line x1="466.4" y1="140" x2="466.4" y2="146" stroke="#dbd7d0" stroke-width="1"/>
<text x="466.4" y="162" text-anchor="middle" font-family='Figtree, system-ui, sans-serif' font-size="11" fill="#69625d">60</text>
<line x1="583.2" y1="140" x2="583.2" y2="146" stroke="#dbd7d0" stroke-width="1"/>
<text x="583.2" y="162" text-anchor="middle" font-family='Figtree, system-ui, sans-serif' font-size="11" fill="#69625d">80</text>
<line x1="700" y1="140" x2="700" y2="146" stroke="#dbd7d0" stroke-width="1"/>
<text x="700" y="162" text-anchor="middle" font-family='Figtree, system-ui, sans-serif' font-size="11" fill="#69625d">100</text>
<text x="700" y="182" text-anchor="end" font-family='Figtree, system-ui, sans-serif' font-size="11" fill="#69625d">gust speed, km/h</text>
<g transform="translate(116,10)">
       <rect x="0" y="0" width="14" height="10" rx="2" fill="#c5bcb0"/><text x="20" y="9" font-family='Figtree, system-ui, sans-serif' font-size="11" fill="#69625d">nothing flagged</text>
       <rect x="126" y="0" width="14" height="10" rx="2" fill="#eca851"/><text x="146" y="9" font-family='Figtree, system-ui, sans-serif' font-size="11" fill="#69625d">moderate</text>
       <rect x="222" y="0" width="14" height="10" rx="2" fill="#d75928"/><text x="242" y="9" font-family='Figtree, system-ui, sans-serif' font-size="11" fill="#69625d">high</text>
     </g>
</svg>
